#!OML:ASF F:\VICON\USERDATA\Patient Classification 1\PLAYGROUND\JustinFriday\JustinFriday.ASF
:FULLY-SPECIFIED
:DEGREES
3966
root 37.1127 23.301 -8.09746 -200.422 -83.3796 -151.215
lowerback 36.416 1.70237 -0.754511
upperback 10.935 0.508229 1.57433
thorax -6.02486 -0.41788 1.93525
lowerneck -5.06944 -0.47497 -4.39059
upperneck 26.5666 -1.03676 0.208451
head 9.17401 -1.16671 0.68597
rclavicle 1.82882e-014 -1.05356e-014
rhumerus 65.1244 1.75358 -62.203
rradius 56.3515
rwrist 9.10807
rhand -21.3768 -8.76985
rfingers 7.12502
rthumb 5.01058 -38.6906
lclavicle 1.82882e-014 -1.05356e-014
lhumerus 35.3558 -16.0542 72.5757
lradius 48.2846
lwrist -29.8492
lhand -45.8113 -55.7224
lfingers 7.12502
lthumb -18.5641 -26.5882
rfemur -67.5806 2.60369 19.117
rtibia 95.7545
rfoot -24.2177 1.07048
rtoes 0.821514
lfemur -17.8008 4.68548 -19.5895
ltibia 27.1668
lfoot -13.0944 -7.49926
ltoes 22.019
3967
root 37.1432 23.3145 -8.07737 -203.651 -83.4485 -147.668
lowerback 36.1035 1.4814 -0.771249
upperback 10.897 0.275576 1.85465
thorax -5.95427 -0.528851 2.32271
lowerneck -5.08314 -0.243186 -5.01946
upperneck 26.6622 -0.598913 0.0411392
head 9.20499 -1.04918 0.775347
rclavicle 2.14687e-014 -5.1684e-015
rhumerus 64.0733 2.65566 -61.2141
rradius 58.1872
rwrist 8.57561
rhand -23.0352 -10.6794
rfingers 7.12502
rthumb 3.40914 -40.6319
lclavicle 2.14687e-014 -5.1684e-015
lhumerus 35.2709 -15.0081 73.6486
lradius 48.0243
lwrist -30.8184
lhand -45.6219 -55.6716
lfingers 7.12502
lthumb -18.382 -26.5201
rfemur -68.2242 2.24708 19.4237
rtibia 95.8126
rfoot -23.4596 0.994789
rtoes -1.0829
lfemur -17.905 4.2096 -19.076
ltibia 26.655
lfoot -12.6448 -7.90546
ltoes 26.2869
3968
root 37.1744 23.3351 -8.06106 -203.934 -83.6081 -147.189
lowerback 35.8648 1.49218 -1.17479
upperback 10.9216 0.178045 2.04714
thorax -5.84679 -0.583407 2.77126
lowerneck -5.19687 -0.113536 -5.464
upperneck 26.819 -0.346249 -0.00889377
head 9.2788 -0.987574 0.856504
rclavicle 3.97569e-016 -2.18663e-014
rhumerus 62.8144 3.27547 -60.3087
rradius 60.1964
rwrist 7.83928
rhand -24.0921 -12.3758
rfingers 7.12502
rthumb 2.38844 -42.3422
lclavicle 3.97569e-016 -2.18663e-014
lhumerus 35.4122 -14.2353 74.6052
lradius 47.7876
lwrist -31.7262
lhand -45.2886 -55.6424
lfingers 7.12502
lthumb -18.0613 -26.461
rfemur -68.7358 1.76823 19.3482
rtibia 95.8628
rfoot -22.9266 1.253
rtoes -1.9127
lfemur -17.8217 2.89445 -18.8356
ltibia 26.1836
lfoot -12.713 -7.60183
ltoes 29.952
3969
root 37.2033 23.3634 -8.04218 -202.14 -83.7657 -148.898
lowerback 36.0312 1.38328 -1.42261
upperback 10.7942 -0.0483344 1.79623
thorax -6.03163 -0.677648 2.71943
lowerneck -5.36298 0.0300694 -5.49947
upperneck 27.1045 -0.158108 0.0412228
head 9.40584 -0.911244 0.896351
rclavicle -1.17283e-014 -1.43125e-014
rhumerus 61.2892 3.94956 -60.4302
rradius 62.1405
rwrist 7.55758
rhand -24.8734 -13.1555
rfingers 7.12502
rthumb 1.63383 -43.129
lclavicle -1.17283e-014 -1.43125e-014
lhumerus 35.5312 -13.7452 74.9847
lradius 47.65
lwrist -32.5037
lhand -44.882 -55.4096
lfingers 7.12502
lthumb -17.6701 -26.1925
rfemur -69.0968 1.14293 19.0947
rtibia 95.9251
rfoot -22.5995 2.02564
rtoes -1.46971
lfemur -17.5116 1.29572 -18.8015
ltibia 25.5774
lfoot -12.9011 -7.06527
ltoes 33.1997
3970
root 37.2198 23.3901 -8.0239 -199.26 -83.8713 -151.714
lowerback 36.0975 1.51165 -1.84743
upperback 10.7606 -0.036284 1.74431
thorax -6.09351 -0.672694 2.88412
lowerneck -5.49897 0.0274918 -5.63629
upperneck 27.2557 -0.112959 -0.0523247
head 9.48621 -0.918191 0.891273
rclavicle 1.8487e-014 9.93923e-015
rhumerus 59.5976 4.34954 -60.407
rradius 64.2492
rwrist 7.39488
rhand -25.2709 -13.9273
rfingers 7.12502
rthumb 1.24989 -43.9034
lclavicle 1.8487e-014 9.93923e-015
lhumerus 35.7946 -13.463 75.727
lradius 47.5222
lwrist -33.2963
lhand -45.2639 -54.1643
lfingers 7.12502
lthumb -18.0375 -24.9807
rfemur -69.2723 0.699458 18.7353
rtibia 96.0572
rfoot -22.4336 2.29071
rtoes -1.93292
lfemur -17.0506 0.579284 -19.0629
ltibia 24.6197
lfoot -12.7802 -6.6094
ltoes 34.3691
3971
root 37.2329 23.4088 -8.00282 -197.428 -83.9593 -153.412
lowerback 35.8292 1.56571 -2.00257
upperback 10.8599 -0.0282555 1.64438
thorax -5.89085 -0.671709 2.85403
lowerneck -5.5522 0.0564008 -5.69215
upperneck 27.3368 -0.0646238 -0.0396641
head 9.52427 -0.90208 0.909832
rclavicle -2.64384e-014 -4.17448e-014
rhumerus 57.9862 4.61721 -60.7475
rradius 66.2511
rwrist 7.41401
rhand -25.5149 -14.4477
rfingers 7.12502
rthumb 1.01425 -44.425
lclavicle -2.64384e-014 -4.17448e-014
lhumerus 36.2287 -13.4172 76.2994
lradius 47.5357
lwrist -33.9758
lhand -47.4321 -48.3494
lfingers 7.12502
lthumb -20.1227 -19.3715
rfemur -69.5001 0.247807 18.5373
rtibia 96.2828
rfoot -22.266 2.04612
rtoes -2.52699
lfemur -16.817 0.758111 -19.537
ltibia 23.6297
lfoot -12.4454 -6.10564
ltoes 32.9135
3972
root 37.2477 23.3788 -7.98178 -197.143 -84.0058 -153.615
lowerback 35.7315 1.54526 -2.01218
upperback 10.8496 -0.0597564 1.50677
thorax -5.86473 -0.680026 2.72428
lowerneck -5.49571 0.0816961 -5.59898
upperneck 27.5259 -0.0815017 0.0364707
head 9.5806 -0.901128 0.918374
rclavicle 1.51076e-014 5.22804e-014
rhumerus 56.3324 5.11192 -61.3379
rradius 67.9959
rwrist 7.58369
rhand -26.5351 -14.8278
rfingers 7.12502
rthumb 0.0289407 -44.8075
lclavicle 1.51076e-014 5.22804e-014
lhumerus 36.4963 -13.5514 76.7099
lradius 47.824
lwrist -34.5508
lhand -45.2483 -54.1785
lfingers 7.12502
lthumb -18.0225 -24.9935
rfemur -70.0021 -0.40162 18.6647
rtibia 96.8701
rfoot -22.1977 1.49344
rtoes -3.37655
lfemur -17.0747 4.132 -21.0876
ltibia 22.5712
lfoot -12.0477 -4.9465
ltoes 14.5328
3973
root 37.2642 23.4176 -7.96204 -197.24 -84.032 -153.547
lowerback 35.782 1.58692 -2.0635
upperback 10.8631 -0.039317 1.39647
thorax -5.86779 -0.669232 2.62753
lowerneck -5.40931 -0.0124959 -5.56115
upperneck 27.4549 -0.238429 0.108944
head 9.54285 -0.958819 0.922472
rclavicle -8.34896e-015 3.37934e-014
rhumerus 54.6014 5.67864 -61.655
rradius 69.7175
rwrist 7.64921
rhand -28.8053 -15.5968
rfingers 7.12502
rthumb -2.16368 -45.5656
lclavicle -8.34896e-015 3.37934e-014
lhumerus 36.7718 -13.5961 77.1387
lradius 47.9511
lwrist -35.1913
lhand -45.5565 -51.8531
lfingers 7.12502
lthumb -18.3191 -22.6957
rfemur -69.7757 -0.707452 18.7512
rtibia 97.1329
rfoot -22.4681 0.795417
rtoes -3.25889
lfemur -16.3747 2.33622 -20.5733
ltibia 21.8404
lfoot -11.6467 -4.99475
ltoes 24.1878
3974
root 37.2796 23.4376 -7.95658 -201.053 -83.8794 -149.712
lowerback 35.8115 1.64806 -1.81447
upperback 10.8985 0.123747 1.52245
thorax -5.8482 -0.595948 2.57174
lowerneck -5.42473 -0.0303076 -5.68524
upperneck 27.3861 -0.23002 0.0904684
head 9.52207 -0.964917 0.938459
rclavicle -1.43125e-014 -3.53837e-014
rhumerus 52.7902 6.26344 -61.6039
rradius 71.4884
rwrist 8.05171
rhand -31.0752 -15.9739
rfingers 7.12502
rthumb -4.35576 -45.9091
lclavicle -1.43125e-014 -3.53837e-014
lhumerus 37.0751 -13.3187 77.9828
lradius 47.7181
lwrist -36.0954
lhand -47.8089 -40.1349
lfingers 7.12502
lthumb -20.4847 -11.1956
rfemur -69.4986 -0.592548 19.302
rtibia 97.6309
rfoot -23.006 -0.0979862
rtoes -1.51672
lfemur -16.0989 2.54306 -20.26
ltibia 20.8602
lfoot -11.2048 -4.45204
ltoes 20.9962
